<svg width="24" height="25" viewBox="0 0 24 25" fill="none" xmlns="http://www.w3.org/2000/svg">
<path d="M16.5689 20.2651C16.0823 22.5508 13.9684 24.2769 11.4422 24.2769C8.91603 24.2769 6.8011 22.5508 6.31553 20.2651H16.5689ZM20.3373 7.2268C22.357 7.2268 24 5.65217 24 3.71649C24 1.7808 22.357 0.206177 20.3373 0.206177C18.3176 0.206177 16.6746 1.7808 16.6746 3.71649C16.6746 5.65217 18.3176 7.2268 20.3373 7.2268ZM20.5885 9.22065C20.5048 9.22366 20.4221 9.23269 20.3373 9.23269C17.1633 9.23269 14.5817 6.75842 14.5817 3.71649C14.5817 2.80982 14.815 1.95531 15.2221 1.2001C13.9852 0.563225 12.5787 0.206177 11.1032 0.206177C7.02086 0.206177 3.48689 2.92316 2.60157 6.74137L0.142342 14.3607C-0.482406 16.2964 1.02766 18.2582 3.14155 18.2582H19.5253C21.7019 18.2582 23.2183 16.1871 22.4774 14.2253L20.5874 9.21865L20.5885 9.22065Z" fill="#9FA5B0"/>
</svg>
